<mxfile host="app.diagrams.net" modified="2023-12-10T22:00:16.392Z" agent="Mozilla/5.0 (Macintosh; Intel Mac OS X 10_15_7) AppleWebKit/537.36 (KHTML, like Gecko) Chrome/119.0.0.0 Safari/537.36" version="22.1.7" etag="Eepq2_6xEjwOsr1LGWzi" type="github">
  <diagram name="Page-1" id="DXuyQzh-dCe9gX4LEfJa">
    <mxGraphModel>
      <root>
        <mxCell id="0" />
        <mxCell id="1" parent="0" />
      </root>
    </mxGraphModel>
  </diagram>
</mxfile>
